<svg width="200" height="250" xmlns="http://www.w3.org/2000/svg">
 <!-- Created with Method Draw - http://github.com/duopixel/Method-Draw/ -->
 <g>
  <title>background</title>
  <rect fill="#fff" id="canvas_background" height="252" width="202" y="-1" x="-1"/>
  <g display="none" overflow="visible" y="0" x="0" height="100%" width="100%" id="canvasGrid">
   <rect fill="url(#gridpattern)" stroke-width="0" y="0" x="0" height="100%" width="100%"/>
  </g>
 </g>
 <g>
  <title>Layer 1</title>
  <path stroke="#000" id="svg_12" d="m163.49706,35.739932c-16.464583,-14.335889 -34.222541,-25.819833 -48.789543,-27.385441c-0.793019,-0.101553 -1.61436,-0.160792 -2.482904,-0.177718l-95.870319,0c-1.529394,0 -3.039906,0.533153 -4.116146,1.523294c-1.066799,0.964753 -1.699326,2.318792 -1.699326,3.698219l0,217.915671c0,1.370965 0.594764,2.68269 1.699326,3.681294c1.104562,0.981678 2.55843,1.514831 4.116146,1.514831l173.369034,0c1.529394,0 2.992702,-0.52469 4.097264,-1.514831c1.104562,-0.990141 1.718208,-2.301867 1.718208,-3.681294l0,-145.009127c-0.339865,-16.832399 -15.048477,-35.188092 -32.041739,-50.564898zm20.391914,190.335587l-161.73809,0l0,-207.48957l90.083169,0l0,0.016925c3.927332,-0.211569 7.316543,3.266619 9.912736,11.221599c2.360175,7.574156 2.954939,17.450179 2.945499,24.296539c0.018881,5.018407 -0.254899,8.38658 -0.254899,8.38658l-0.462594,5.517709l6.1931,0.059239c0.028322,0 14.312103,0.152329 28.322103,3.004274c13.46244,2.606525 23.988821,7.80265 24.970654,13.684258c0.037763,0.52469 0.047204,1.04938 0.037763,1.540219l0,139.762226l-0.009441,0z" fill-opacity="null" stroke-opacity="null" stroke-width="1.5" fill="none"/>
  <path id="svg_14" d="m99.272797,95.729083c-0.312211,-0.348739 -0.699568,-0.690545 -1.193455,-0.952767c-2.113232,-1.143419 -5.09539,-0.79466 -6.644671,0.783465c-1.546646,1.581877 -1.057777,3.792878 1.060314,4.939514c1.924527,1.035516 4.492726,0.787232 6.131451,-0.43101l-44.96568,46.028848l-13.979191,37.67828l43.891011,-21.565797l99.95514,-102.318493l-29.923888,-16.11572l-9.646161,9.875261c-0.551828,-1.642761 -1.78399,-3.185119 -3.780965,-4.27086c-4.633242,-2.494584 -11.110717,-1.739958 -14.468122,1.707382c-19.23922,19.707791 -8.573828,24.955985 -26.435788,44.641896l0.000007,0zm-22.013286,61.605702l-22.577224,11.093966l7.189297,-19.398021l15.387934,8.304054l-0.000007,0zm26.595616,-62.608638c13.850777,-15.195575 12.531472,-19.315837 24.385335,-32.803464c1.960862,0.999224 4.211998,1.351705 6.421953,1.265188l-30.807288,31.538281l0,-0.000005z" stroke-opacity="null" stroke-width="1.5" stroke="#000" fill="#6D97AB"/>
  <text xml:space="preserve" text-anchor="start" font-family="Helvetica, Arial, sans-serif" font-size="24" id="svg_15" y="42.224325" x="24.165947" stroke-opacity="null" stroke-width="0" stroke="#000" fill="#000000">IMMA.ie</text>
 </g>
</svg>